<?xml version='1.0' encoding='UTF-8' standalone='no'?>
<!-- Created with Fritzing (http://www.fritzing.org/) -->
<svg xmlns="http://www.w3.org/2000/svg" x="0in" version="1.2" y="0in"  viewBox="0 0 40.8432 2.7432" baseProfile="tiny" height="0.108in" width="1.608in">
    <desc >
        <referenceFile >sparkfun-connectors_1x16_machine-pin-header_lock.004_breadboard.svg</referenceFile>
    </desc>
    <g gorn="0.1"  id="breadboard">
        <path  stroke-width="0" fill="#1F7A34" stroke="none" d="M0,0l40.8432,0 0,2.7432 -40.8432,0 0,-2.7432z&#xa;M0.9271,1.27a0.4445,0.4445 0 1 0 0.889,0 0.4445,0.4445 0 1 0 -0.889,0z&#xa;M3.4671,1.4732a0.4445,0.4445 0 1 0 0.889,0 0.4445,0.4445 0 1 0 -0.889,0z&#xa;M6.0071,1.27a0.4445,0.4445 0 1 0 0.889,0 0.4445,0.4445 0 1 0 -0.889,0z&#xa;M8.5471,1.4732a0.4445,0.4445 0 1 0 0.889,0 0.4445,0.4445 0 1 0 -0.889,0z&#xa;M11.0871,1.27a0.4445,0.4445 0 1 0 0.889,0 0.4445,0.4445 0 1 0 -0.889,0z&#xa;M13.6271,1.4732a0.4445,0.4445 0 1 0 0.889,0 0.4445,0.4445 0 1 0 -0.889,0z&#xa;M16.1671,1.27a0.4445,0.4445 0 1 0 0.889,0 0.4445,0.4445 0 1 0 -0.889,0z&#xa;M18.7071,1.4732a0.4445,0.4445 0 1 0 0.889,0 0.4445,0.4445 0 1 0 -0.889,0z&#xa;M21.2471,1.27a0.4445,0.4445 0 1 0 0.889,0 0.4445,0.4445 0 1 0 -0.889,0z&#xa;M23.7871,1.4732a0.4445,0.4445 0 1 0 0.889,0 0.4445,0.4445 0 1 0 -0.889,0z&#xa;M26.3271,1.27a0.4445,0.4445 0 1 0 0.889,0 0.4445,0.4445 0 1 0 -0.889,0z&#xa;M28.8671,1.4732a0.4445,0.4445 0 1 0 0.889,0 0.4445,0.4445 0 1 0 -0.889,0z&#xa;M31.4071,1.27a0.4445,0.4445 0 1 0 0.889,0 0.4445,0.4445 0 1 0 -0.889,0z&#xa;M33.9471,1.4732a0.4445,0.4445 0 1 0 0.889,0 0.4445,0.4445 0 1 0 -0.889,0z&#xa;M36.4871,1.27a0.4445,0.4445 0 1 0 0.889,0 0.4445,0.4445 0 1 0 -0.889,0z&#xa;M39.0271,1.4732a0.4445,0.4445 0 1 0 0.889,0 0.4445,0.4445 0 1 0 -0.889,0z&#xa;"/>
        <circle cx="1.3716" gorn="0.1.1" cy="1.27"  stroke-width="0.254" fill="none" connectorname="1" stroke="#9A916C" r="0.5715" id="connector0pin"/>
        <circle cx="3.9116" gorn="0.1.2" cy="1.4732"  stroke-width="0.254" fill="none" connectorname="2" stroke="#9A916C" r="0.5715" id="connector1pin"/>
        <circle cx="6.4516" gorn="0.1.3" cy="1.27"  stroke-width="0.254" fill="none" connectorname="3" stroke="#9A916C" r="0.5715" id="connector2pin"/>
        <circle cx="8.9916" gorn="0.1.4" cy="1.4732"  stroke-width="0.254" fill="none" connectorname="4" stroke="#9A916C" r="0.5715" id="connector3pin"/>
        <circle cx="11.5316" gorn="0.1.5" cy="1.27"  stroke-width="0.254" fill="none" connectorname="5" stroke="#9A916C" r="0.5715" id="connector4pin"/>
        <circle cx="14.0716" gorn="0.1.6" cy="1.4732"  stroke-width="0.254" fill="none" connectorname="6" stroke="#9A916C" r="0.5715" id="connector5pin"/>
        <circle cx="16.6116" gorn="0.1.7" cy="1.27"  stroke-width="0.254" fill="none" connectorname="7" stroke="#9A916C" r="0.5715" id="connector6pin"/>
        <circle cx="19.1516" gorn="0.1.8" cy="1.4732"  stroke-width="0.254" fill="none" connectorname="8" stroke="#9A916C" r="0.5715" id="connector7pin"/>
        <circle cx="21.6916" gorn="0.1.9" cy="1.27"  stroke-width="0.254" fill="none" connectorname="9" stroke="#9A916C" r="0.5715" id="connector8pin"/>
        <circle cx="24.2316" gorn="0.1.10" cy="1.4732"  stroke-width="0.254" fill="none" connectorname="10" stroke="#9A916C" r="0.5715" id="connector9pin"/>
        <circle cx="26.7716" gorn="0.1.11" cy="1.27"  stroke-width="0.254" fill="none" connectorname="11" stroke="#9A916C" r="0.5715" id="connector10pin"/>
        <circle cx="29.3116" gorn="0.1.12" cy="1.4732"  stroke-width="0.254" fill="none" connectorname="12" stroke="#9A916C" r="0.5715" id="connector11pin"/>
        <circle cx="31.8516" gorn="0.1.13" cy="1.27"  stroke-width="0.254" fill="none" connectorname="13" stroke="#9A916C" r="0.5715" id="connector12pin"/>
        <circle cx="34.3916" gorn="0.1.14" cy="1.4732"  stroke-width="0.254" fill="none" connectorname="14" stroke="#9A916C" r="0.5715" id="connector13pin"/>
        <circle cx="36.9316" gorn="0.1.15" cy="1.27"  stroke-width="0.254" fill="none" connectorname="15" stroke="#9A916C" r="0.5715" id="connector14pin"/>
        <circle cx="39.4716" gorn="0.1.16" cy="1.4732"  stroke-width="0.254" fill="none" connectorname="16" stroke="#9A916C" r="0.5715" id="connector15pin"/>
        <line y1="0.7366" class="other" y2="0.1016" stroke-linecap="round"  x1="12.8016" x2="13.4366" stroke-width="0.2032" stroke="#f8f8f8"/>
        <line y1="0.1016" class="other" y2="0.1016" stroke-linecap="round"  x1="13.4366" x2="14.7066" stroke-width="0.2032" stroke="#f8f8f8"/>
        <line y1="0.1016" class="other" y2="0.7366" stroke-linecap="round"  x1="14.7066" x2="15.3416" stroke-width="0.2032" stroke="#f8f8f8"/>
        <line y1="2.0066" class="other" y2="2.6416" stroke-linecap="round"  x1="15.3416" x2="14.7066" stroke-width="0.2032" stroke="#f8f8f8"/>
        <line y1="2.6416" class="other" y2="2.6416" stroke-linecap="round"  x1="14.7066" x2="13.4366" stroke-width="0.2032" stroke="#f8f8f8"/>
        <line y1="2.6416" class="other" y2="2.0066" stroke-linecap="round"  x1="13.4366" x2="12.8016" stroke-width="0.2032" stroke="#f8f8f8"/>
        <line y1="0.1016" class="other" y2="0.1016" stroke-linecap="round"  x1="8.3566" x2="9.6266" stroke-width="0.2032" stroke="#f8f8f8"/>
        <line y1="0.1016" class="other" y2="0.7366" stroke-linecap="round"  x1="9.6266" x2="10.2616" stroke-width="0.2032" stroke="#f8f8f8"/>
        <line y1="2.0066" class="other" y2="2.6416" stroke-linecap="round"  x1="10.2616" x2="9.6266" stroke-width="0.2032" stroke="#f8f8f8"/>
        <line y1="0.7366" class="other" y2="0.1016" stroke-linecap="round"  x1="10.2616" x2="10.8966" stroke-width="0.2032" stroke="#f8f8f8"/>
        <line y1="0.1016" class="other" y2="0.1016" stroke-linecap="round"  x1="10.8966" x2="12.1666" stroke-width="0.2032" stroke="#f8f8f8"/>
        <line y1="0.1016" class="other" y2="0.7366" stroke-linecap="round"  x1="12.1666" x2="12.8016" stroke-width="0.2032" stroke="#f8f8f8"/>
        <line y1="2.0066" class="other" y2="2.6416" stroke-linecap="round"  x1="12.8016" x2="12.1666" stroke-width="0.2032" stroke="#f8f8f8"/>
        <line y1="2.6416" class="other" y2="2.6416" stroke-linecap="round"  x1="12.1666" x2="10.8966" stroke-width="0.2032" stroke="#f8f8f8"/>
        <line y1="2.6416" class="other" y2="2.0066" stroke-linecap="round"  x1="10.8966" x2="10.2616" stroke-width="0.2032" stroke="#f8f8f8"/>
        <line y1="0.7366" class="other" y2="0.1016" stroke-linecap="round"  x1="5.1816" x2="5.8166" stroke-width="0.2032" stroke="#f8f8f8"/>
        <line y1="0.1016" class="other" y2="0.1016" stroke-linecap="round"  x1="5.8166" x2="7.0866" stroke-width="0.2032" stroke="#f8f8f8"/>
        <line y1="0.1016" class="other" y2="0.7366" stroke-linecap="round"  x1="7.0866" x2="7.7216" stroke-width="0.2032" stroke="#f8f8f8"/>
        <line y1="2.0066" class="other" y2="2.6416" stroke-linecap="round"  x1="7.7216" x2="7.0866" stroke-width="0.2032" stroke="#f8f8f8"/>
        <line y1="2.6416" class="other" y2="2.6416" stroke-linecap="round"  x1="7.0866" x2="5.8166" stroke-width="0.2032" stroke="#f8f8f8"/>
        <line y1="2.6416" class="other" y2="2.0066" stroke-linecap="round"  x1="5.8166" x2="5.1816" stroke-width="0.2032" stroke="#f8f8f8"/>
        <line y1="0.1016" class="other" y2="0.7366" stroke-linecap="round"  x1="8.3566" x2="7.7216" stroke-width="0.2032" stroke="#f8f8f8"/>
        <line y1="2.0066" class="other" y2="2.6416" stroke-linecap="round"  x1="7.7216" x2="8.3566" stroke-width="0.2032" stroke="#f8f8f8"/>
        <line y1="2.6416" class="other" y2="2.6416" stroke-linecap="round"  x1="9.6266" x2="8.3566" stroke-width="0.2032" stroke="#f8f8f8"/>
        <line y1="0.1016" class="other" y2="0.1016" stroke-linecap="round"  x1="0.7366" x2="2.0066" stroke-width="0.2032" stroke="#f8f8f8"/>
        <line y1="0.1016" class="other" y2="0.7366" stroke-linecap="round"  x1="2.0066" x2="2.6416" stroke-width="0.2032" stroke="#f8f8f8"/>
        <line y1="2.0066" class="other" y2="2.6416" stroke-linecap="round"  x1="2.6416" x2="2.0066" stroke-width="0.2032" stroke="#f8f8f8"/>
        <line y1="0.7366" class="other" y2="0.1016" stroke-linecap="round"  x1="2.6416" x2="3.2766" stroke-width="0.2032" stroke="#f8f8f8"/>
        <line y1="0.1016" class="other" y2="0.1016" stroke-linecap="round"  x1="3.2766" x2="4.5466" stroke-width="0.2032" stroke="#f8f8f8"/>
        <line y1="0.1016" class="other" y2="0.7366" stroke-linecap="round"  x1="4.5466" x2="5.1816" stroke-width="0.2032" stroke="#f8f8f8"/>
        <line y1="2.0066" class="other" y2="2.6416" stroke-linecap="round"  x1="5.1816" x2="4.5466" stroke-width="0.2032" stroke="#f8f8f8"/>
        <line y1="2.6416" class="other" y2="2.6416" stroke-linecap="round"  x1="4.5466" x2="3.2766" stroke-width="0.2032" stroke="#f8f8f8"/>
        <line y1="2.6416" class="other" y2="2.0066" stroke-linecap="round"  x1="3.2766" x2="2.6416" stroke-width="0.2032" stroke="#f8f8f8"/>
        <line y1="0.7366" class="other" y2="2.0066" stroke-linecap="round"  x1="0.1016" x2="0.1016" stroke-width="0.2032" stroke="#f8f8f8"/>
        <line y1="0.1016" class="other" y2="0.7366" stroke-linecap="round"  x1="0.7366" x2="0.1016" stroke-width="0.2032" stroke="#f8f8f8"/>
        <line y1="2.0066" class="other" y2="2.6416" stroke-linecap="round"  x1="0.1016" x2="0.7366" stroke-width="0.2032" stroke="#f8f8f8"/>
        <line y1="2.6416" class="other" y2="2.6416" stroke-linecap="round"  x1="2.0066" x2="0.7366" stroke-width="0.2032" stroke="#f8f8f8"/>
        <line y1="0.7366" class="other" y2="0.1016" stroke-linecap="round"  x1="28.0416" x2="28.6766" stroke-width="0.2032" stroke="#f8f8f8"/>
        <line y1="0.1016" class="other" y2="0.1016" stroke-linecap="round"  x1="28.6766" x2="29.9466" stroke-width="0.2032" stroke="#f8f8f8"/>
        <line y1="0.1016" class="other" y2="0.7366" stroke-linecap="round"  x1="29.9466" x2="30.5816" stroke-width="0.2032" stroke="#f8f8f8"/>
        <line y1="2.0066" class="other" y2="2.6416" stroke-linecap="round"  x1="30.5816" x2="29.9466" stroke-width="0.2032" stroke="#f8f8f8"/>
        <line y1="2.6416" class="other" y2="2.6416" stroke-linecap="round"  x1="29.9466" x2="28.6766" stroke-width="0.2032" stroke="#f8f8f8"/>
        <line y1="2.6416" class="other" y2="2.0066" stroke-linecap="round"  x1="28.6766" x2="28.0416" stroke-width="0.2032" stroke="#f8f8f8"/>
        <line y1="0.1016" class="other" y2="0.1016" stroke-linecap="round"  x1="23.5966" x2="24.8666" stroke-width="0.2032" stroke="#f8f8f8"/>
        <line y1="0.1016" class="other" y2="0.7366" stroke-linecap="round"  x1="24.8666" x2="25.5016" stroke-width="0.2032" stroke="#f8f8f8"/>
        <line y1="2.0066" class="other" y2="2.6416" stroke-linecap="round"  x1="25.5016" x2="24.8666" stroke-width="0.2032" stroke="#f8f8f8"/>
        <line y1="0.7366" class="other" y2="0.1016" stroke-linecap="round"  x1="25.5016" x2="26.1366" stroke-width="0.2032" stroke="#f8f8f8"/>
        <line y1="0.1016" class="other" y2="0.1016" stroke-linecap="round"  x1="26.1366" x2="27.4066" stroke-width="0.2032" stroke="#f8f8f8"/>
        <line y1="0.1016" class="other" y2="0.7366" stroke-linecap="round"  x1="27.4066" x2="28.0416" stroke-width="0.2032" stroke="#f8f8f8"/>
        <line y1="2.0066" class="other" y2="2.6416" stroke-linecap="round"  x1="28.0416" x2="27.4066" stroke-width="0.2032" stroke="#f8f8f8"/>
        <line y1="2.6416" class="other" y2="2.6416" stroke-linecap="round"  x1="27.4066" x2="26.1366" stroke-width="0.2032" stroke="#f8f8f8"/>
        <line y1="2.6416" class="other" y2="2.0066" stroke-linecap="round"  x1="26.1366" x2="25.5016" stroke-width="0.2032" stroke="#f8f8f8"/>
        <line y1="0.7366" class="other" y2="0.1016" stroke-linecap="round"  x1="20.4216" x2="21.0566" stroke-width="0.2032" stroke="#f8f8f8"/>
        <line y1="0.1016" class="other" y2="0.1016" stroke-linecap="round"  x1="21.0566" x2="22.3266" stroke-width="0.2032" stroke="#f8f8f8"/>
        <line y1="0.1016" class="other" y2="0.7366" stroke-linecap="round"  x1="22.3266" x2="22.9616" stroke-width="0.2032" stroke="#f8f8f8"/>
        <line y1="2.0066" class="other" y2="2.6416" stroke-linecap="round"  x1="22.9616" x2="22.3266" stroke-width="0.2032" stroke="#f8f8f8"/>
        <line y1="2.6416" class="other" y2="2.6416" stroke-linecap="round"  x1="22.3266" x2="21.0566" stroke-width="0.2032" stroke="#f8f8f8"/>
        <line y1="2.6416" class="other" y2="2.0066" stroke-linecap="round"  x1="21.0566" x2="20.4216" stroke-width="0.2032" stroke="#f8f8f8"/>
        <line y1="0.1016" class="other" y2="0.7366" stroke-linecap="round"  x1="23.5966" x2="22.9616" stroke-width="0.2032" stroke="#f8f8f8"/>
        <line y1="2.0066" class="other" y2="2.6416" stroke-linecap="round"  x1="22.9616" x2="23.5966" stroke-width="0.2032" stroke="#f8f8f8"/>
        <line y1="2.6416" class="other" y2="2.6416" stroke-linecap="round"  x1="24.8666" x2="23.5966" stroke-width="0.2032" stroke="#f8f8f8"/>
        <line y1="0.1016" class="other" y2="0.1016" stroke-linecap="round"  x1="15.9766" x2="17.2466" stroke-width="0.2032" stroke="#f8f8f8"/>
        <line y1="0.1016" class="other" y2="0.7366" stroke-linecap="round"  x1="17.2466" x2="17.8816" stroke-width="0.2032" stroke="#f8f8f8"/>
        <line y1="2.0066" class="other" y2="2.6416" stroke-linecap="round"  x1="17.8816" x2="17.2466" stroke-width="0.2032" stroke="#f8f8f8"/>
        <line y1="0.7366" class="other" y2="0.1016" stroke-linecap="round"  x1="17.8816" x2="18.5166" stroke-width="0.2032" stroke="#f8f8f8"/>
        <line y1="0.1016" class="other" y2="0.1016" stroke-linecap="round"  x1="18.5166" x2="19.7866" stroke-width="0.2032" stroke="#f8f8f8"/>
        <line y1="0.1016" class="other" y2="0.7366" stroke-linecap="round"  x1="19.7866" x2="20.4216" stroke-width="0.2032" stroke="#f8f8f8"/>
        <line y1="2.0066" class="other" y2="2.6416" stroke-linecap="round"  x1="20.4216" x2="19.7866" stroke-width="0.2032" stroke="#f8f8f8"/>
        <line y1="2.6416" class="other" y2="2.6416" stroke-linecap="round"  x1="19.7866" x2="18.5166" stroke-width="0.2032" stroke="#f8f8f8"/>
        <line y1="2.6416" class="other" y2="2.0066" stroke-linecap="round"  x1="18.5166" x2="17.8816" stroke-width="0.2032" stroke="#f8f8f8"/>
        <line y1="0.1016" class="other" y2="0.7366" stroke-linecap="round"  x1="15.9766" x2="15.3416" stroke-width="0.2032" stroke="#f8f8f8"/>
        <line y1="2.0066" class="other" y2="2.6416" stroke-linecap="round"  x1="15.3416" x2="15.9766" stroke-width="0.2032" stroke="#f8f8f8"/>
        <line y1="2.6416" class="other" y2="2.6416" stroke-linecap="round"  x1="17.2466" x2="15.9766" stroke-width="0.2032" stroke="#f8f8f8"/>
        <line y1="0.7366" class="other" y2="0.1016" stroke-linecap="round"  x1="38.2016" x2="38.8366" stroke-width="0.2032" stroke="#f8f8f8"/>
        <line y1="0.1016" class="other" y2="0.1016" stroke-linecap="round"  x1="38.8366" x2="40.1066" stroke-width="0.2032" stroke="#f8f8f8"/>
        <line y1="0.1016" class="other" y2="0.7366" stroke-linecap="round"  x1="40.1066" x2="40.7416" stroke-width="0.2032" stroke="#f8f8f8"/>
        <line y1="2.0066" class="other" y2="2.6416" stroke-linecap="round"  x1="40.7416" x2="40.1066" stroke-width="0.2032" stroke="#f8f8f8"/>
        <line y1="2.6416" class="other" y2="2.6416" stroke-linecap="round"  x1="40.1066" x2="38.8366" stroke-width="0.2032" stroke="#f8f8f8"/>
        <line y1="2.6416" class="other" y2="2.0066" stroke-linecap="round"  x1="38.8366" x2="38.2016" stroke-width="0.2032" stroke="#f8f8f8"/>
        <line y1="0.1016" class="other" y2="0.1016" stroke-linecap="round"  x1="33.7566" x2="35.0266" stroke-width="0.2032" stroke="#f8f8f8"/>
        <line y1="0.1016" class="other" y2="0.7366" stroke-linecap="round"  x1="35.0266" x2="35.6616" stroke-width="0.2032" stroke="#f8f8f8"/>
        <line y1="2.0066" class="other" y2="2.6416" stroke-linecap="round"  x1="35.6616" x2="35.0266" stroke-width="0.2032" stroke="#f8f8f8"/>
        <line y1="0.7366" class="other" y2="0.1016" stroke-linecap="round"  x1="35.6616" x2="36.2966" stroke-width="0.2032" stroke="#f8f8f8"/>
        <line y1="0.1016" class="other" y2="0.1016" stroke-linecap="round"  x1="36.2966" x2="37.5666" stroke-width="0.2032" stroke="#f8f8f8"/>
        <line y1="0.1016" class="other" y2="0.7366" stroke-linecap="round"  x1="37.5666" x2="38.2016" stroke-width="0.2032" stroke="#f8f8f8"/>
        <line y1="2.0066" class="other" y2="2.6416" stroke-linecap="round"  x1="38.2016" x2="37.5666" stroke-width="0.2032" stroke="#f8f8f8"/>
        <line y1="2.6416" class="other" y2="2.6416" stroke-linecap="round"  x1="37.5666" x2="36.2966" stroke-width="0.2032" stroke="#f8f8f8"/>
        <line y1="2.6416" class="other" y2="2.0066" stroke-linecap="round"  x1="36.2966" x2="35.6616" stroke-width="0.2032" stroke="#f8f8f8"/>
        <line y1="0.7366" class="other" y2="0.1016" stroke-linecap="round"  x1="30.5816" x2="31.2166" stroke-width="0.2032" stroke="#f8f8f8"/>
        <line y1="0.1016" class="other" y2="0.1016" stroke-linecap="round"  x1="31.2166" x2="32.4866" stroke-width="0.2032" stroke="#f8f8f8"/>
        <line y1="0.1016" class="other" y2="0.7366" stroke-linecap="round"  x1="32.4866" x2="33.1216" stroke-width="0.2032" stroke="#f8f8f8"/>
        <line y1="2.0066" class="other" y2="2.6416" stroke-linecap="round"  x1="33.1216" x2="32.4866" stroke-width="0.2032" stroke="#f8f8f8"/>
        <line y1="2.6416" class="other" y2="2.6416" stroke-linecap="round"  x1="32.4866" x2="31.2166" stroke-width="0.2032" stroke="#f8f8f8"/>
        <line y1="2.6416" class="other" y2="2.0066" stroke-linecap="round"  x1="31.2166" x2="30.5816" stroke-width="0.2032" stroke="#f8f8f8"/>
        <line y1="0.1016" class="other" y2="0.7366" stroke-linecap="round"  x1="33.7566" x2="33.1216" stroke-width="0.2032" stroke="#f8f8f8"/>
        <line y1="2.0066" class="other" y2="2.6416" stroke-linecap="round"  x1="33.1216" x2="33.7566" stroke-width="0.2032" stroke="#f8f8f8"/>
        <line y1="2.6416" class="other" y2="2.6416" stroke-linecap="round"  x1="35.0266" x2="33.7566" stroke-width="0.2032" stroke="#f8f8f8"/>
        <line y1="0.1016" class="other" y2="0.7366" stroke-linecap="round"  x1="29.9466" x2="30.5816" stroke-width="0.2032" stroke="#f8f8f8"/>
        <line y1="2.0066" class="other" y2="2.6416" stroke-linecap="round"  x1="30.5816" x2="29.9466" stroke-width="0.2032" stroke="#f8f8f8"/>
        <line y1="0.7366" class="other" y2="2.0066" stroke-linecap="round"  x1="40.7416" x2="40.7416" stroke-width="0.2032" stroke="#f8f8f8"/>
    </g>
</svg>
